<svg width="28" height="28" viewBox="0 0 28 28" fill="none" xmlns="http://www.w3.org/2000/svg">
<path d="M6.5498 14.4834C6.5498 14.7646 6.65527 15.0107 6.84863 15.2129L13.5371 22.0508C13.7744 22.2881 14.0381 22.4111 14.3457 22.4111C14.6533 22.4111 14.9346 22.2881 15.1631 22.042L21.8428 15.2041C22.0361 15.0107 22.1416 14.7646 22.1416 14.4834C22.1416 13.8945 21.6846 13.4287 21.1045 13.4287C20.8232 13.4287 20.5508 13.5518 20.3486 13.7539L14.3545 19.9062L8.34277 13.7539C8.14062 13.5518 7.87695 13.4287 7.58691 13.4287C7.00684 13.4287 6.5498 13.8945 6.5498 14.4834ZM6.5498 6.62598C6.5498 6.91601 6.65527 7.15332 6.84863 7.35547L13.5371 14.1934C13.7744 14.4395 14.0381 14.5537 14.3457 14.5537C14.6533 14.5537 14.9346 14.4307 15.1631 14.1934L21.8428 7.35547C22.0361 7.15332 22.1416 6.91602 22.1416 6.62598C22.1416 6.03711 21.6846 5.58008 21.1045 5.58008C20.8232 5.58008 20.5508 5.69434 20.3486 5.89648L14.3545 12.0576L8.34277 5.89648C8.14062 5.70312 7.87695 5.58008 7.58691 5.58008C7.00684 5.58008 6.5498 6.03711 6.5498 6.62598Z" fill="#01B99F"/>
</svg>
