<svg width="236" height="568" viewBox="0 0 236 568" fill="none" xmlns="http://www.w3.org/2000/svg">
<g filter="url(#filter0_dddd)">
<path d="M84 62C84 57.5817 87.5817 54 92 54H144C148.418 54 152 57.5817 152 62V446C152 450.418 148.418 454 144 454H92C87.5817 454 84 450.418 84 446V62Z" fill="#282729"/>
<path d="M84 62H152V94H84V62Z" fill="#7047EB"/>
<path d="M100.905 83H107.885V81.4588H103.45V81.3892L105.205 79.6044C107.184 77.7053 107.731 76.7805 107.731 75.6321C107.731 73.9268 106.344 72.679 104.295 72.679C102.277 72.679 100.845 73.9318 100.845 75.8658H102.6C102.6 74.8267 103.256 74.1754 104.271 74.1754C105.24 74.1754 105.961 74.767 105.961 75.7266C105.961 76.5767 105.444 77.1832 104.44 78.2024L100.905 81.6676V83ZM113.364 83.1939C115.82 83.1989 117.286 81.2599 117.286 77.919C117.286 74.598 115.81 72.679 113.364 72.679C110.918 72.679 109.446 74.593 109.441 77.919C109.441 81.255 110.908 83.1939 113.364 83.1939ZM113.364 81.6378C112.096 81.6378 111.3 80.3651 111.305 77.919C111.31 75.4929 112.101 74.2152 113.364 74.2152C114.631 74.2152 115.422 75.4929 115.427 77.919C115.427 80.3651 114.636 81.6378 113.364 81.6378ZM118.938 83H125.918V81.4588H121.483V81.3892L123.238 79.6044C125.217 77.7053 125.764 76.7805 125.764 75.6321C125.764 73.9268 124.377 72.679 122.329 72.679C120.31 72.679 118.878 73.9318 118.878 75.8658H120.633C120.633 74.8267 121.29 74.1754 122.304 74.1754C123.273 74.1754 123.994 74.767 123.994 75.7266C123.994 76.5767 123.477 77.1832 122.473 78.2024L118.938 81.6676V83ZM131.775 72.8182H130.02L127.489 74.4439V76.1342L129.871 74.6129H129.93V83H131.775V72.8182Z" fill="#F8F7FA"/>
<path d="M101.054 115H107.477V113.906H102.744V113.827L105.031 111.381C106.781 109.506 107.298 108.631 107.298 107.503C107.298 105.932 106.026 104.679 104.236 104.679C102.451 104.679 101.094 105.892 101.094 107.682H102.267C102.267 106.523 103.018 105.753 104.196 105.753C105.3 105.753 106.145 106.429 106.145 107.503C106.145 108.442 105.593 109.138 104.415 110.426L101.054 114.105V115ZM112.852 115.139C115.099 115.139 116.391 113.235 116.391 109.909C116.391 106.608 115.079 104.679 112.852 104.679C110.624 104.679 109.312 106.608 109.312 109.909C109.312 113.235 110.604 115.139 112.852 115.139ZM112.852 114.045C111.37 114.045 110.505 112.559 110.505 109.909C110.505 107.264 111.38 105.753 112.852 105.753C114.323 105.753 115.198 107.264 115.198 109.909C115.198 112.559 114.333 114.045 112.852 114.045ZM118.281 115H124.704V113.906H119.971V113.827L122.258 111.381C124.008 109.506 124.525 108.631 124.525 107.503C124.525 105.932 123.252 104.679 121.462 104.679C119.678 104.679 118.32 105.892 118.32 107.682H119.494C119.494 106.523 120.244 105.753 121.423 105.753C122.526 105.753 123.371 106.429 123.371 107.503C123.371 108.442 122.82 109.138 121.641 110.426L118.281 114.105V115ZM126.757 115H133.18V113.906H128.447V113.827L130.734 111.381C132.484 109.506 133.001 108.631 133.001 107.503C133.001 105.932 131.729 104.679 129.939 104.679C128.154 104.679 126.797 105.892 126.797 107.682H127.97C127.97 106.523 128.721 105.753 129.899 105.753C131.003 105.753 131.848 106.429 131.848 107.503C131.848 108.442 131.296 109.138 130.118 110.426L126.757 114.105V115Z" fill="#C9C8CC"/>
<path d="M101.054 147H107.477V145.906H102.744V145.827L105.031 143.381C106.781 141.506 107.298 140.631 107.298 139.503C107.298 137.932 106.026 136.679 104.236 136.679C102.451 136.679 101.094 137.892 101.094 139.682H102.267C102.267 138.523 103.018 137.753 104.196 137.753C105.3 137.753 106.145 138.429 106.145 139.503C106.145 140.442 105.593 141.138 104.415 142.426L101.054 146.105V147ZM112.852 147.139C115.099 147.139 116.391 145.235 116.391 141.909C116.391 138.608 115.079 136.679 112.852 136.679C110.624 136.679 109.312 138.608 109.312 141.909C109.312 145.235 110.604 147.139 112.852 147.139ZM112.852 146.045C111.37 146.045 110.505 144.559 110.505 141.909C110.505 139.264 111.38 137.753 112.852 137.753C114.323 137.753 115.198 139.264 115.198 141.909C115.198 144.559 114.333 146.045 112.852 146.045ZM118.281 147H124.704V145.906H119.971V145.827L122.258 143.381C124.008 141.506 124.525 140.631 124.525 139.503C124.525 137.932 123.252 136.679 121.462 136.679C119.678 136.679 118.32 137.892 118.32 139.682H119.494C119.494 138.523 120.244 137.753 121.423 137.753C122.526 137.753 123.371 138.429 123.371 139.503C123.371 140.442 122.82 141.138 121.641 142.426L118.281 146.105V147ZM130.197 147.139C132.171 147.139 133.638 145.901 133.638 144.236C133.638 142.943 132.872 142.004 131.589 141.79V141.71C132.619 141.397 133.26 140.552 133.26 139.403C133.26 137.962 132.121 136.679 130.237 136.679C128.477 136.679 127.016 137.763 126.956 139.364H128.149C128.194 138.349 129.158 137.753 130.217 137.753C131.341 137.753 132.067 138.434 132.067 139.463C132.067 140.537 131.227 141.233 130.018 141.233H129.203V142.327H130.018C131.565 142.327 132.425 143.112 132.425 144.236C132.425 145.315 131.485 146.045 130.178 146.045C128.999 146.045 128.065 145.439 127.99 144.455H126.737C126.812 146.055 128.224 147.139 130.197 147.139Z" fill="#C9C8CC"/>
<path d="M101.054 179H107.477V177.906H102.744V177.827L105.031 175.381C106.781 173.506 107.298 172.631 107.298 171.503C107.298 169.932 106.026 168.679 104.236 168.679C102.451 168.679 101.094 169.892 101.094 171.682H102.267C102.267 170.523 103.018 169.753 104.196 169.753C105.3 169.753 106.145 170.429 106.145 171.503C106.145 172.442 105.593 173.138 104.415 174.426L101.054 178.105V179ZM112.852 179.139C115.099 179.139 116.391 177.235 116.391 173.909C116.391 170.608 115.079 168.679 112.852 168.679C110.624 168.679 109.312 170.608 109.312 173.909C109.312 177.235 110.604 179.139 112.852 179.139ZM112.852 178.045C111.37 178.045 110.505 176.559 110.505 173.909C110.505 171.264 111.38 169.753 112.852 169.753C114.323 169.753 115.198 171.264 115.198 173.909C115.198 176.559 114.333 178.045 112.852 178.045ZM118.281 179H124.704V177.906H119.971V177.827L122.258 175.381C124.008 173.506 124.525 172.631 124.525 171.503C124.525 169.932 123.252 168.679 121.462 168.679C119.678 168.679 118.32 169.892 118.32 171.682H119.494C119.494 170.523 120.244 169.753 121.423 169.753C122.526 169.753 123.371 170.429 123.371 171.503C123.371 172.442 122.82 173.138 121.641 174.426L118.281 178.105V179ZM126.3 176.912H131.092V179H132.266V176.912H133.658V175.818H132.266V168.818H130.774L126.3 175.898V176.912ZM131.092 175.818H127.632V175.739L131.013 170.389H131.092V175.818Z" fill="#C9C8CC"/>
<path d="M101.054 211H107.477V209.906H102.744V209.827L105.031 207.381C106.781 205.506 107.298 204.631 107.298 203.503C107.298 201.932 106.026 200.679 104.236 200.679C102.451 200.679 101.094 201.892 101.094 203.682H102.267C102.267 202.523 103.018 201.753 104.196 201.753C105.3 201.753 106.145 202.429 106.145 203.503C106.145 204.442 105.593 205.138 104.415 206.426L101.054 210.105V211ZM112.852 211.139C115.099 211.139 116.391 209.235 116.391 205.909C116.391 202.608 115.079 200.679 112.852 200.679C110.624 200.679 109.312 202.608 109.312 205.909C109.312 209.235 110.604 211.139 112.852 211.139ZM112.852 210.045C111.37 210.045 110.505 208.559 110.505 205.909C110.505 203.264 111.38 201.753 112.852 201.753C114.323 201.753 115.198 203.264 115.198 205.909C115.198 208.559 114.333 210.045 112.852 210.045ZM118.281 211H124.704V209.906H119.971V209.827L122.258 207.381C124.008 205.506 124.525 204.631 124.525 203.503C124.525 201.932 123.252 200.679 121.462 200.679C119.678 200.679 118.32 201.892 118.32 203.682H119.494C119.494 202.523 120.244 201.753 121.423 201.753C122.526 201.753 123.371 202.429 123.371 203.503C123.371 204.442 122.82 205.138 121.641 206.426L118.281 210.105V211ZM129.939 211.139C131.878 211.139 133.3 209.707 133.3 207.759C133.3 205.785 131.928 204.338 130.058 204.338C129.372 204.338 128.706 204.582 128.288 204.915H128.229L128.587 201.912H132.842V200.818H127.553L126.936 205.83L128.089 205.969C128.512 205.665 129.233 205.447 129.859 205.452C131.157 205.462 132.107 206.446 132.107 207.778C132.107 209.086 131.192 210.045 129.939 210.045C128.895 210.045 128.065 209.374 127.97 208.455H126.777C126.852 210.006 128.189 211.139 129.939 211.139Z" fill="#C9C8CC"/>
<path d="M101.054 243H107.477V241.906H102.744V241.827L105.031 239.381C106.781 237.506 107.298 236.631 107.298 235.503C107.298 233.932 106.026 232.679 104.236 232.679C102.451 232.679 101.094 233.892 101.094 235.682H102.267C102.267 234.523 103.018 233.753 104.196 233.753C105.3 233.753 106.145 234.429 106.145 235.503C106.145 236.442 105.593 237.138 104.415 238.426L101.054 242.105V243ZM112.852 243.139C115.099 243.139 116.391 241.235 116.391 237.909C116.391 234.608 115.079 232.679 112.852 232.679C110.624 232.679 109.312 234.608 109.312 237.909C109.312 241.235 110.604 243.139 112.852 243.139ZM112.852 242.045C111.37 242.045 110.505 240.559 110.505 237.909C110.505 235.264 111.38 233.753 112.852 233.753C114.323 233.753 115.198 235.264 115.198 237.909C115.198 240.559 114.333 242.045 112.852 242.045ZM118.281 243H124.704V241.906H119.971V241.827L122.258 239.381C124.008 237.506 124.525 236.631 124.525 235.503C124.525 233.932 123.252 232.679 121.462 232.679C119.678 232.679 118.32 233.892 118.32 235.682H119.494C119.494 234.523 120.244 233.753 121.423 233.753C122.526 233.753 123.371 234.429 123.371 235.503C123.371 236.442 122.82 237.138 121.641 238.426L118.281 242.105V243ZM130.138 243.139C132.196 243.164 133.538 241.613 133.538 239.719C133.538 237.75 132.082 236.338 130.337 236.338C129.288 236.338 128.388 236.85 127.831 237.69H127.751C127.756 235.21 128.721 233.773 130.297 233.773C131.371 233.773 132.017 234.449 132.246 235.364H133.459C133.21 233.783 132.007 232.679 130.297 232.679C128.005 232.679 126.598 234.707 126.598 238.307C126.598 242.07 128.467 243.119 130.138 243.139ZM130.138 242.045C128.86 242.045 127.925 240.957 127.93 239.739C127.935 238.521 128.915 237.432 130.178 237.432C131.425 237.432 132.345 238.456 132.345 239.719C132.345 241.011 131.386 242.045 130.138 242.045Z" fill="#C9C8CC"/>
<path d="M84 254H152V286H84V254Z" fill="#313133"/>
<path d="M100.84 275H107.322V273.569H103.204V273.504L104.833 271.847C106.671 270.083 107.179 269.225 107.179 268.158C107.179 266.575 105.891 265.416 103.989 265.416C102.114 265.416 100.785 266.58 100.785 268.375H102.414C102.414 267.411 103.024 266.806 103.966 266.806C104.866 266.806 105.535 267.355 105.535 268.246C105.535 269.036 105.055 269.599 104.123 270.545L100.84 273.763V275ZM112.409 275.18C114.69 275.185 116.051 273.384 116.051 270.282C116.051 267.198 114.68 265.416 112.409 265.416C110.138 265.416 108.771 267.194 108.767 270.282C108.767 273.38 110.129 275.18 112.409 275.18ZM112.409 273.735C111.232 273.735 110.493 272.553 110.498 270.282C110.502 268.029 111.237 266.843 112.409 266.843C113.586 266.843 114.32 268.029 114.325 270.282C114.325 272.553 113.591 273.735 112.409 273.735ZM117.585 275H124.067V273.569H119.949V273.504L121.579 271.847C123.416 270.083 123.924 269.225 123.924 268.158C123.924 266.575 122.636 265.416 120.734 265.416C118.859 265.416 117.53 266.58 117.53 268.375H119.16C119.16 267.411 119.769 266.806 120.711 266.806C121.611 266.806 122.28 267.355 122.28 268.246C122.28 269.036 121.8 269.599 120.868 270.545L117.585 273.763V275ZM126.006 275H127.783L131.799 267.009V265.545H125.359V266.977H130.027V267.041L126.006 275Z" fill="#F8F7FA"/>
<path d="M101.054 307H107.477V305.906H102.744V305.827L105.031 303.381C106.781 301.506 107.298 300.631 107.298 299.503C107.298 297.932 106.026 296.679 104.236 296.679C102.451 296.679 101.094 297.892 101.094 299.682H102.267C102.267 298.523 103.018 297.753 104.196 297.753C105.3 297.753 106.145 298.429 106.145 299.503C106.145 300.442 105.593 301.138 104.415 302.426L101.054 306.105V307ZM112.852 307.139C115.099 307.139 116.391 305.235 116.391 301.909C116.391 298.608 115.079 296.679 112.852 296.679C110.624 296.679 109.312 298.608 109.312 301.909C109.312 305.235 110.604 307.139 112.852 307.139ZM112.852 306.045C111.37 306.045 110.505 304.559 110.505 301.909C110.505 299.264 111.38 297.753 112.852 297.753C114.323 297.753 115.198 299.264 115.198 301.909C115.198 304.559 114.333 306.045 112.852 306.045ZM118.281 307H124.704V305.906H119.971V305.827L122.258 303.381C124.008 301.506 124.525 300.631 124.525 299.503C124.525 297.932 123.252 296.679 121.462 296.679C119.678 296.679 118.32 297.892 118.32 299.682H119.494C119.494 298.523 120.244 297.753 121.423 297.753C122.526 297.753 123.371 298.429 123.371 299.503C123.371 300.442 122.82 301.138 121.641 302.426L118.281 306.105V307ZM130.018 307.139C132.052 307.139 133.469 305.951 133.479 304.295C133.469 303.008 132.609 301.914 131.51 301.71V301.651C132.464 301.402 133.091 300.467 133.101 299.384C133.091 297.832 131.788 296.679 130.018 296.679C128.229 296.679 126.926 297.832 126.936 299.384C126.926 300.467 127.553 301.402 128.527 301.651V301.71C127.408 301.914 126.548 303.008 126.558 304.295C126.548 305.951 127.965 307.139 130.018 307.139ZM130.018 306.045C128.621 306.045 127.761 305.33 127.771 304.236C127.761 303.087 128.711 302.267 130.018 302.267C131.306 302.267 132.256 303.087 132.266 304.236C132.256 305.33 131.396 306.045 130.018 306.045ZM130.018 301.213C128.905 301.213 128.119 300.517 128.129 299.463C128.119 298.429 128.875 297.753 130.018 297.753C131.142 297.753 131.898 298.429 131.908 299.463C131.898 300.517 131.112 301.213 130.018 301.213Z" fill="#C9C8CC"/>
<path d="M101.054 339H107.477V337.906H102.744V337.827L105.031 335.381C106.781 333.506 107.298 332.631 107.298 331.503C107.298 329.932 106.026 328.679 104.236 328.679C102.451 328.679 101.094 329.892 101.094 331.682H102.267C102.267 330.523 103.018 329.753 104.196 329.753C105.3 329.753 106.145 330.429 106.145 331.503C106.145 332.442 105.593 333.138 104.415 334.426L101.054 338.105V339ZM112.852 339.139C115.099 339.139 116.391 337.235 116.391 333.909C116.391 330.608 115.079 328.679 112.852 328.679C110.624 328.679 109.312 330.608 109.312 333.909C109.312 337.235 110.604 339.139 112.852 339.139ZM112.852 338.045C111.37 338.045 110.505 336.559 110.505 333.909C110.505 331.264 111.38 329.753 112.852 329.753C114.323 329.753 115.198 331.264 115.198 333.909C115.198 336.559 114.333 338.045 112.852 338.045ZM118.281 339H124.704V337.906H119.971V337.827L122.258 335.381C124.008 333.506 124.525 332.631 124.525 331.503C124.525 329.932 123.252 328.679 121.462 328.679C119.678 328.679 118.32 329.892 118.32 331.682H119.494C119.494 330.523 120.244 329.753 121.423 329.753C122.526 329.753 123.371 330.429 123.371 331.503C123.371 332.442 122.82 333.138 121.641 334.426L118.281 338.105V339ZM129.999 328.679C127.93 328.654 126.598 330.21 126.598 332.08C126.598 334.048 128.05 335.46 129.8 335.46C130.854 335.46 131.749 334.943 132.305 334.108H132.385C132.385 336.614 131.411 338.045 129.839 338.045C128.766 338.045 128.109 337.369 127.891 336.435H126.678C126.916 338.045 128.129 339.139 129.839 339.139C132.126 339.139 133.538 337.111 133.538 333.491C133.538 329.753 131.669 328.699 129.999 328.679ZM129.999 329.773C131.271 329.773 132.206 330.866 132.206 332.06C132.206 333.273 131.212 334.366 129.959 334.366C128.706 334.366 127.791 333.352 127.791 332.08C127.791 330.807 128.746 329.773 129.999 329.773Z" fill="#C9C8CC"/>
<path d="M101.054 371H107.477V369.906H102.744V369.827L105.031 367.381C106.781 365.506 107.298 364.631 107.298 363.503C107.298 361.932 106.026 360.679 104.236 360.679C102.451 360.679 101.094 361.892 101.094 363.682H102.267C102.267 362.523 103.018 361.753 104.196 361.753C105.3 361.753 106.145 362.429 106.145 363.503C106.145 364.442 105.593 365.138 104.415 366.426L101.054 370.105V371ZM112.852 371.139C115.099 371.139 116.391 369.235 116.391 365.909C116.391 362.608 115.079 360.679 112.852 360.679C110.624 360.679 109.312 362.608 109.312 365.909C109.312 369.235 110.604 371.139 112.852 371.139ZM112.852 370.045C111.37 370.045 110.505 368.559 110.505 365.909C110.505 363.264 111.38 361.753 112.852 361.753C114.323 361.753 115.198 363.264 115.198 365.909C115.198 368.559 114.333 370.045 112.852 370.045ZM121.721 371.139C123.695 371.139 125.161 369.901 125.161 368.236C125.161 366.943 124.396 366.004 123.113 365.79V365.71C124.142 365.397 124.783 364.552 124.783 363.403C124.783 361.962 123.645 360.679 121.761 360.679C120.001 360.679 118.539 361.763 118.479 363.364H119.673C119.717 362.349 120.682 361.753 121.741 361.753C122.864 361.753 123.59 362.434 123.59 363.463C123.59 364.537 122.75 365.233 121.542 365.233H120.727V366.327H121.542C123.088 366.327 123.948 367.112 123.948 368.236C123.948 369.315 123.009 370.045 121.701 370.045C120.523 370.045 119.588 369.439 119.513 368.455H118.261C118.335 370.055 119.747 371.139 121.721 371.139ZM130.516 371.139C132.763 371.139 134.055 369.235 134.055 365.909C134.055 362.608 132.743 360.679 130.516 360.679C128.288 360.679 126.976 362.608 126.976 365.909C126.976 369.235 128.268 371.139 130.516 371.139ZM130.516 370.045C129.034 370.045 128.169 368.559 128.169 365.909C128.169 363.264 129.044 361.753 130.516 361.753C131.987 361.753 132.862 363.264 132.862 365.909C132.862 368.559 131.997 370.045 130.516 370.045Z" fill="#C9C8CC"/>
<path d="M101.054 403H107.477V401.906H102.744V401.827L105.031 399.381C106.781 397.506 107.298 396.631 107.298 395.503C107.298 393.932 106.026 392.679 104.236 392.679C102.451 392.679 101.094 393.892 101.094 395.682H102.267C102.267 394.523 103.018 393.753 104.196 393.753C105.3 393.753 106.145 394.429 106.145 395.503C106.145 396.442 105.593 397.138 104.415 398.426L101.054 402.105V403ZM112.852 403.139C115.099 403.139 116.391 401.235 116.391 397.909C116.391 394.608 115.079 392.679 112.852 392.679C110.624 392.679 109.312 394.608 109.312 397.909C109.312 401.235 110.604 403.139 112.852 403.139ZM112.852 402.045C111.37 402.045 110.505 400.559 110.505 397.909C110.505 395.264 111.38 393.753 112.852 393.753C114.323 393.753 115.198 395.264 115.198 397.909C115.198 400.559 114.333 402.045 112.852 402.045ZM121.721 403.139C123.695 403.139 125.161 401.901 125.161 400.236C125.161 398.943 124.396 398.004 123.113 397.79V397.71C124.142 397.397 124.783 396.552 124.783 395.403C124.783 393.962 123.645 392.679 121.761 392.679C120.001 392.679 118.539 393.763 118.479 395.364H119.673C119.717 394.349 120.682 393.753 121.741 393.753C122.864 393.753 123.59 394.434 123.59 395.463C123.59 396.537 122.75 397.233 121.542 397.233H120.727V398.327H121.542C123.088 398.327 123.948 399.112 123.948 400.236C123.948 401.315 123.009 402.045 121.701 402.045C120.523 402.045 119.588 401.439 119.513 400.455H118.261C118.335 402.055 119.747 403.139 121.721 403.139ZM130.774 392.818H129.541L126.996 394.509V395.761L129.482 394.111H129.541V403H130.774V392.818Z" fill="#C9C8CC"/>
<path d="M101.054 435H107.477V433.906H102.744V433.827L105.031 431.381C106.781 429.506 107.298 428.631 107.298 427.503C107.298 425.932 106.026 424.679 104.236 424.679C102.451 424.679 101.094 425.892 101.094 427.682H102.267C102.267 426.523 103.018 425.753 104.196 425.753C105.3 425.753 106.145 426.429 106.145 427.503C106.145 428.442 105.593 429.138 104.415 430.426L101.054 434.105V435ZM112.852 435.139C115.099 435.139 116.391 433.235 116.391 429.909C116.391 426.608 115.079 424.679 112.852 424.679C110.624 424.679 109.312 426.608 109.312 429.909C109.312 433.235 110.604 435.139 112.852 435.139ZM112.852 434.045C111.37 434.045 110.505 432.559 110.505 429.909C110.505 427.264 111.38 425.753 112.852 425.753C114.323 425.753 115.198 427.264 115.198 429.909C115.198 432.559 114.333 434.045 112.852 434.045ZM121.721 435.139C123.695 435.139 125.161 433.901 125.161 432.236C125.161 430.943 124.396 430.004 123.113 429.79V429.71C124.142 429.397 124.783 428.552 124.783 427.403C124.783 425.962 123.645 424.679 121.761 424.679C120.001 424.679 118.539 425.763 118.479 427.364H119.673C119.717 426.349 120.682 425.753 121.741 425.753C122.864 425.753 123.59 426.434 123.59 427.463C123.59 428.537 122.75 429.233 121.542 429.233H120.727V430.327H121.542C123.088 430.327 123.948 431.112 123.948 432.236C123.948 433.315 123.009 434.045 121.701 434.045C120.523 434.045 119.588 433.439 119.513 432.455H118.261C118.335 434.055 119.747 435.139 121.721 435.139ZM127.195 435H133.618V433.906H128.885V433.827L131.172 431.381C132.922 429.506 133.439 428.631 133.439 427.503C133.439 425.932 132.166 424.679 130.376 424.679C128.592 424.679 127.234 425.892 127.234 427.682H128.408C128.408 426.523 129.158 425.753 130.337 425.753C131.44 425.753 132.286 426.429 132.286 427.503C132.286 428.442 131.734 429.138 130.555 430.426L127.195 434.105V435Z" fill="#C9C8CC"/>
</g>
<defs>
<filter id="filter0_dddd" x="0" y="0" width="236" height="568" filterUnits="userSpaceOnUse" color-interpolation-filters="sRGB">
<feFlood flood-opacity="0" result="BackgroundImageFix"/>
<feColorMatrix in="SourceAlpha" type="matrix" values="0 0 0 0 0 0 0 0 0 0 0 0 0 0 0 0 0 0 127 0" result="hardAlpha"/>
<feOffset dy="1"/>
<feGaussianBlur stdDeviation="1.5"/>
<feColorMatrix type="matrix" values="0 0 0 0 0.0745098 0 0 0 0 0.0392157 0 0 0 0 0.180392 0 0 0 0.13 0"/>
<feBlend mode="normal" in2="BackgroundImageFix" result="effect1_dropShadow"/>
<feColorMatrix in="SourceAlpha" type="matrix" values="0 0 0 0 0 0 0 0 0 0 0 0 0 0 0 0 0 0 127 0" result="hardAlpha"/>
<feOffset dy="3"/>
<feGaussianBlur stdDeviation="7"/>
<feColorMatrix type="matrix" values="0 0 0 0 0.0745098 0 0 0 0 0.0392157 0 0 0 0 0.180392 0 0 0 0.03 0"/>
<feBlend mode="normal" in2="effect1_dropShadow" result="effect2_dropShadow"/>
<feColorMatrix in="SourceAlpha" type="matrix" values="0 0 0 0 0 0 0 0 0 0 0 0 0 0 0 0 0 0 127 0" result="hardAlpha"/>
<feOffset dy="8"/>
<feGaussianBlur stdDeviation="16"/>
<feColorMatrix type="matrix" values="0 0 0 0 0.0745098 0 0 0 0 0.0392157 0 0 0 0 0.180392 0 0 0 0.07 0"/>
<feBlend mode="normal" in2="effect2_dropShadow" result="effect3_dropShadow"/>
<feColorMatrix in="SourceAlpha" type="matrix" values="0 0 0 0 0 0 0 0 0 0 0 0 0 0 0 0 0 0 127 0" result="hardAlpha"/>
<feOffset dy="30"/>
<feGaussianBlur stdDeviation="42"/>
<feColorMatrix type="matrix" values="0 0 0 0 0.0745098 0 0 0 0 0.0392157 0 0 0 0 0.180392 0 0 0 0.08 0"/>
<feBlend mode="normal" in2="effect3_dropShadow" result="effect4_dropShadow"/>
<feBlend mode="normal" in="SourceGraphic" in2="effect4_dropShadow" result="shape"/>
</filter>
</defs>
</svg>
