<svg width="1143" height="921" viewBox="0 0 1143 921" fill="none" xmlns="http://www.w3.org/2000/svg">
<path d="M905.031 724.959L792.342 920.144L-103 403.218L-24.9235 267.985C-25.93 274.567 -26.7463 281.068 -27.1982 287.516C-28.5839 306.127 -26.8833 323.941 -17.2849 339.2C-10.305 350.393 0.925694 360.219 18.2719 368.014C21.4739 369.456 24.605 370.691 27.6446 371.754C87.907 392.555 119.255 340.698 175.158 342.46C211.782 343.621 242.61 365.407 267.478 391.726C277.007 401.812 286.144 412.411 295.835 422.423L297.614 424.263C307.412 434.531 318.415 443.577 330.384 451.204C366.502 473.298 400.318 466.296 432.487 456.314C446.392 451.998 460.004 447.155 473.383 443.873C510.607 434.731 575.3 406.71 627.075 382.786L628.627 382.083C646.35 373.883 662.475 366.217 675.382 359.988C690.359 352.782 700.985 347.528 704.635 345.672C705.578 345.237 706.056 344.988 706.056 344.988L709.211 348.457L712.452 352.023L713.652 353.337L714.121 353.847L720.091 360.421L721.229 361.675L724.731 365.535L729.517 370.686L730.178 371.402C729.254 372.134 708.083 388.705 679.637 411.963C621.324 459.617 532.446 535.275 524.188 560.041C511.731 597.497 520.736 650.877 548.975 689.099C588.447 742.52 671.969 744.041 725.684 735.491C762.647 729.613 798.084 720.921 838.042 720.234C842.084 720.18 846.177 720.204 850.321 720.304C854.012 720.405 857.709 720.535 861.376 720.718C876.317 721.513 890.86 722.913 905.031 724.959Z" fill="url(#paint0_linear)"/>
<path d="M827.384 326.768C827.384 326.768 853.599 364.896 850.741 396.313C847.882 427.731 779.6 419.705 779.6 419.705C785.589 410.566 788.684 399.833 788.478 388.908C788.273 377.984 784.778 367.375 778.449 358.467L774.239 352.527L827.384 326.768Z" fill="url(#paint1_linear)"/>
<path d="M827.384 326.768C827.384 326.768 853.599 364.896 850.741 396.313C847.882 427.731 779.6 419.705 779.6 419.705C785.589 410.566 788.684 399.833 788.478 388.908C788.273 377.984 784.778 367.375 778.449 358.467L774.239 352.527L827.384 326.768Z" fill="url(#paint2_linear)"/>
<path d="M797.356 277.127C797.356 277.127 775.595 236.247 746.475 224.281C717.355 212.315 692.766 276.575 692.766 276.575C703.64 275.49 714.588 277.707 724.184 282.936C733.78 288.165 741.577 296.164 746.56 305.89L749.868 312.36L797.356 277.127Z" fill="url(#paint3_linear)"/>
<path d="M430.285 557.063L408.57 520.65C497.375 432.01 630.409 420.764 723.551 336.274L737.415 359.487C625.216 410.364 546.688 518.547 430.285 557.063Z" fill="url(#paint4_linear)"/>
<path style="mix-blend-mode:overlay" opacity="0.7" d="M411.869 526.184C501.813 448.97 620.321 420.455 715.305 350.018L722.028 361.325C619.907 417.947 534.631 506.429 427.031 551.532L411.869 526.184Z" fill="url(#paint5_linear)"/>
<path style="mix-blend-mode:color-dodge" d="M694.195 335.012C760.523 293.657 821.382 271.492 830.191 285.555C838.999 299.618 792.266 344.502 725.956 385.868C659.646 427.234 598.798 449.381 589.971 435.308C581.144 421.234 627.906 376.342 694.195 335.012Z" fill="url(#paint6_radial)"/>
<path style="mix-blend-mode:lighten" d="M696.48 344.95C726.66 326.132 755.865 318.473 761.705 327.837C767.544 337.201 747.865 360.078 717.68 378.822C687.495 397.566 658.295 405.3 652.456 395.935C646.616 386.571 666.299 363.769 696.48 344.95Z" fill="url(#paint7_radial)"/>
<path style="mix-blend-mode:soft-light" d="M671.177 352.26C730.51 315.246 785.237 295.844 793.373 308.922C801.509 322 760.008 362.576 700.712 399.61C641.415 436.644 586.652 456.026 578.499 442.938C570.345 429.85 611.791 389.243 671.177 352.26Z" fill="url(#paint8_radial)"/>
<path d="M730.465 371.4C720.055 362.386 712.825 350.258 709.845 336.813C718.412 331.652 726.977 326.466 735.541 321.255C736.027 320.905 736.597 320.689 737.193 320.628C737.789 320.567 738.391 320.663 738.938 320.907C739.486 321.15 739.96 321.533 740.314 322.017C740.667 322.501 740.888 323.069 740.954 323.664C744.167 333.55 749.553 342.591 756.717 350.122C757.207 350.462 757.599 350.924 757.855 351.462C758.111 352 758.221 352.596 758.175 353.19C758.129 353.784 757.928 354.355 757.593 354.848C757.257 355.34 756.799 355.736 756.263 355.996C747.723 361.221 739.124 366.356 730.465 371.4Z" fill="url(#paint9_linear)"/>
<path style="mix-blend-mode:multiply" d="M730.465 371.4C720.055 362.386 712.825 350.258 709.845 336.813C718.412 331.652 726.977 326.466 735.541 321.255C736.027 320.905 736.597 320.689 737.193 320.628C737.789 320.567 738.391 320.663 738.938 320.907C739.486 321.15 739.96 321.533 740.314 322.017C740.667 322.501 740.888 323.069 740.954 323.664C744.167 333.55 749.553 342.591 756.717 350.122C757.207 350.462 757.599 350.924 757.855 351.462C758.111 352 758.221 352.596 758.175 353.19C758.129 353.784 757.928 354.355 757.593 354.848C757.257 355.34 756.799 355.736 756.263 355.996C747.723 361.221 739.124 366.356 730.465 371.4Z" fill="url(#paint10_radial)"/>
<path d="M724.116 375.16C713.718 366.146 706.484 354.037 703.475 340.609L709.809 336.793C712.789 350.237 720.019 362.365 730.429 371.38L724.116 375.16Z" fill="url(#paint11_linear)"/>
<path style="mix-blend-mode:multiply" d="M724.116 375.16C713.718 366.146 706.484 354.037 703.475 340.609L709.809 336.793C712.789 350.237 720.019 362.365 730.429 371.38L724.116 375.16Z" fill="url(#paint12_linear)"/>
<path d="M750.494 376.16C803.022 364.083 858.943 345.466 902.652 312.397C930.602 291.693 960.76 246.24 962.751 210.287C927.598 193.262 878.689 200.934 844.198 215.473C794.302 240.816 740.72 284.659 718.272 321.265C711.524 332.292 733.216 370.935 750.494 376.16Z" fill="url(#paint13_radial)"/>
<path style="mix-blend-mode:multiply" d="M750.494 376.16C803.022 364.083 858.943 345.466 902.652 312.397C930.602 291.693 960.76 246.24 962.751 210.287C927.598 193.262 878.689 200.934 844.198 215.473C794.302 240.816 740.72 284.659 718.272 321.265C711.524 332.292 733.216 370.935 750.494 376.16Z" fill="url(#paint14_radial)"/>
<path style="mix-blend-mode:overlay" d="M752.567 379.6C806.058 369.37 862.777 351.977 906.17 318.296C933.911 297.209 962.577 249.295 962.7 210.21C925.518 189.793 875.448 195.505 840.629 209.497C790.435 234.405 737.607 279.257 716.381 318.048C709.984 329.707 734.464 372.993 752.567 379.6Z" fill="url(#paint15_radial)"/>
<path style="mix-blend-mode:overlay" d="M739.947 335.848C730.724 320.311 725.767 304.286 725.615 291.567C717.303 298.464 713.224 302.031 705.361 309.096C706.683 323.114 711.143 336.631 718.408 348.638C727.225 363.555 739.45 375.783 752.039 383.033C760.741 380.362 769.176 376.872 777.233 372.609C764.596 367.366 750.519 353.776 739.947 335.848Z" fill="url(#paint16_radial)"/>
<path style="mix-blend-mode:multiply" d="M887.85 252.804C874.552 230.802 868.144 209.935 869.438 195.617C866.231 197.036 857.047 202.358 853.865 203.816C853.602 218.539 860.642 239.388 873.819 261.226C888.901 286.217 907.048 304.286 922.424 309.869C925.438 307.502 934.53 301.721 937.511 299.287C921.958 295.417 903.212 278.22 887.85 252.804Z" fill="url(#paint17_radial)"/>
<path style="mix-blend-mode:multiply" d="M741.054 343.921C730.543 326.272 724.986 307.569 724.493 291.096C722.008 293.291 720.803 294.386 718.364 296.583C720.046 314.462 725.759 331.728 735.074 347.082C745.712 365.194 760.668 380.391 778.608 391.317C782.064 390.375 783.782 389.839 787.157 388.708C770.323 380.564 753.196 364.325 741.054 343.921Z" fill="url(#paint18_radial)"/>
<path d="M799.893 307.72C796.494 301.696 794.959 294.798 795.482 287.901C796.005 281.003 798.561 274.416 802.829 268.972C807.096 263.528 812.882 259.472 819.455 257.317C826.028 255.163 833.093 255.006 839.755 256.867C846.417 258.728 852.377 262.524 856.882 267.773C861.386 273.023 864.233 279.49 865.06 286.358C865.888 293.225 864.661 300.184 861.533 306.354C858.405 312.523 853.517 317.626 847.488 321.017C839.401 325.51 829.869 326.634 820.959 324.144C812.049 321.655 804.48 315.754 799.893 307.72Z" fill="url(#paint19_radial)"/>
<path d="M806.089 304.183C803.387 299.396 802.165 293.914 802.579 288.432C802.992 282.951 805.022 277.714 808.412 273.387C811.802 269.059 816.399 265.833 821.623 264.119C826.846 262.404 832.46 262.277 837.755 263.754C843.051 265.231 847.789 268.245 851.371 272.415C854.953 276.586 857.218 281.725 857.878 287.182C858.539 292.64 857.566 298.171 855.083 303.075C852.6 307.98 848.718 312.038 843.928 314.736C837.506 318.334 829.922 319.244 822.831 317.266C815.741 315.289 809.722 310.585 806.089 304.183Z" fill="url(#paint20_linear)"/>
<path d="M808.977 302.531C806.606 298.324 805.536 293.508 805.901 288.693C806.267 283.878 808.052 279.279 811.031 275.478C814.01 271.677 818.049 268.845 822.638 267.34C827.226 265.834 832.158 265.723 836.81 267.02C841.462 268.317 845.624 270.964 848.772 274.627C851.919 278.29 853.91 282.803 854.492 287.597C855.074 292.391 854.222 297.25 852.043 301.56C849.865 305.87 846.457 309.437 842.251 311.81C836.605 314.977 829.934 315.778 823.698 314.04C817.463 312.301 812.169 308.163 808.977 302.531Z" fill="url(#paint21_linear)"/>
<path style="mix-blend-mode:overlay" opacity="0.7" d="M810.951 301.427C808.802 297.617 807.83 293.255 808.159 288.892C808.488 284.53 810.103 280.363 812.8 276.918C815.497 273.473 819.154 270.905 823.31 269.538C827.466 268.172 831.934 268.068 836.149 269.24C840.364 270.412 844.136 272.808 846.99 276.124C849.844 279.44 851.651 283.528 852.182 287.87C852.713 292.213 851.944 296.615 849.974 300.521C848.003 304.427 844.919 307.661 841.111 309.814C835.995 312.682 829.952 313.41 824.302 311.838C818.652 310.267 813.852 306.524 810.951 301.427Z" fill="url(#paint22_radial)"/>
<defs>
<linearGradient id="paint0_linear" x1="-53822.9" y1="415080" x2="120326" y2="176504" gradientUnits="userSpaceOnUse">
<stop offset="0.01" stop-color="white"/>
<stop offset="0.06" stop-color="white" stop-opacity="0.91"/>
<stop offset="0.21" stop-color="white" stop-opacity="0.67"/>
<stop offset="0.36" stop-color="white" stop-opacity="0.47"/>
<stop offset="0.5" stop-color="white" stop-opacity="0.3"/>
<stop offset="0.64" stop-color="white" stop-opacity="0.17"/>
<stop offset="0.77" stop-color="white" stop-opacity="0.08"/>
<stop offset="0.89" stop-color="white" stop-opacity="0.02"/>
<stop offset="0.99" stop-color="white" stop-opacity="0"/>
</linearGradient>
<linearGradient id="paint1_linear" x1="820.086" y1="424.255" x2="799.71" y2="329.43" gradientUnits="userSpaceOnUse">
<stop stop-color="#00FFB2"/>
<stop offset="1" stop-color="#0085FF"/>
</linearGradient>
<linearGradient id="paint2_linear" x1="820.267" y1="425.102" x2="799.905" y2="330.262" gradientUnits="userSpaceOnUse">
<stop stop-color="white" stop-opacity="0"/>
<stop offset="0.23" stop-color="#CFF1F8" stop-opacity="0.21"/>
<stop offset="0.75" stop-color="#57A2E7" stop-opacity="0.74"/>
<stop offset="1" stop-color="#1DA4DE"/>
</linearGradient>
<linearGradient id="paint3_linear" x1="-23543.6" y1="-21260.9" x2="-20201.2" y2="-19006.5" gradientUnits="userSpaceOnUse">
<stop stop-color="white" stop-opacity="0"/>
<stop offset="0.23" stop-color="#CFF8EE" stop-opacity="0.21"/>
<stop offset="0.75" stop-color="#57E7E7" stop-opacity="0.74"/>
<stop offset="0.822917" stop-color="#46E4C8" stop-opacity="0.815833"/>
<stop offset="1" stop-color="#1DDEBB"/>
</linearGradient>
<linearGradient id="paint4_linear" x1="439.366" y1="521.476" x2="695.1" y2="363.164" gradientUnits="userSpaceOnUse">
<stop stop-color="#FFD71D" stop-opacity="0"/>
<stop offset="1" stop-color="#FEB200"/>
</linearGradient>
<linearGradient id="paint5_linear" x1="652.807" y1="382.91" x2="406.386" y2="544.635" gradientUnits="userSpaceOnUse">
<stop stop-color="#FFE580"/>
<stop offset="1" stop-color="white" stop-opacity="0"/>
</linearGradient>
<radialGradient id="paint6_radial" cx="0" cy="0" r="1" gradientUnits="userSpaceOnUse" gradientTransform="translate(709.476 360.931) rotate(-121.504) scale(29.2573 129.813)">
<stop stop-color="white"/>
<stop offset="0.25" stop-color="#A3A3A3" stop-opacity="0.64"/>
<stop offset="0.67" stop-opacity="0"/>
</radialGradient>
<radialGradient id="paint7_radial" cx="0" cy="0" r="1" gradientUnits="userSpaceOnUse" gradientTransform="translate(707.365 363.245) rotate(-122.447) scale(19.0586 59.1581)">
<stop stop-color="white"/>
<stop offset="0.37" stop-color="white" stop-opacity="0.64"/>
<stop offset="1" stop-color="white" stop-opacity="0"/>
</radialGradient>
<radialGradient id="paint8_radial" cx="0" cy="0" r="1" gradientUnits="userSpaceOnUse" gradientTransform="translate(685.9 376.141) rotate(-121.876) scale(27.2508 116.047)">
<stop stop-color="#F3510F"/>
<stop offset="0.39" stop-color="#F89369" stop-opacity="0.62"/>
<stop offset="1" stop-color="white" stop-opacity="0"/>
</radialGradient>
<linearGradient id="paint9_linear" x1="745.288" y1="334.91" x2="713.517" y2="353.707" gradientUnits="userSpaceOnUse">
<stop offset="0.84" stop-color="#FCFDFE"/>
<stop offset="0.88" stop-color="#F8FBFD"/>
<stop offset="0.91" stop-color="#EDF5FA"/>
<stop offset="0.94" stop-color="#DBECF4"/>
<stop offset="0.97" stop-color="#C0DEEC"/>
<stop offset="0.99" stop-color="#9FCDE3"/>
<stop offset="1" stop-color="#96C8E0"/>
</linearGradient>
<radialGradient id="paint10_radial" cx="0" cy="0" r="1" gradientUnits="userSpaceOnUse" gradientTransform="translate(726.358 343.566) rotate(59.389) scale(37.6376 13.511)">
<stop offset="0.5" stop-color="#7598D3"/>
<stop offset="1" stop-color="white" stop-opacity="0"/>
</radialGradient>
<linearGradient id="paint11_linear" x1="10290.2" y1="15107.1" x2="10223.4" y2="15222.9" gradientUnits="userSpaceOnUse">
<stop offset="0.84" stop-color="#FCFDFE"/>
<stop offset="0.88" stop-color="#F8FBFD"/>
<stop offset="0.91" stop-color="#EDF5FA"/>
<stop offset="0.94" stop-color="#DBECF4"/>
<stop offset="0.97" stop-color="#C0DEEC"/>
<stop offset="0.99" stop-color="#9FCDE3"/>
<stop offset="1" stop-color="#96C8E0"/>
</linearGradient>
<linearGradient id="paint12_linear" x1="706.278" y1="358.014" x2="716.832" y2="351.769" gradientUnits="userSpaceOnUse">
<stop stop-color="white" stop-opacity="0"/>
<stop offset="1" stop-color="#3B63A5"/>
</linearGradient>
<radialGradient id="paint13_radial" cx="0" cy="0" r="1" gradientUnits="userSpaceOnUse" gradientTransform="translate(-6282.74 76406.3) rotate(58.76) scale(8545.01 12798.9)">
<stop stop-color="#FFFF00"/>
<stop offset="1" stop-color="#01B99F"/>
</radialGradient>
<radialGradient id="paint14_radial" cx="0" cy="0" r="1" gradientUnits="userSpaceOnUse" gradientTransform="translate(842.596 281.642) rotate(59.389) scale(76.8031 169.067)">
<stop offset="0.21" stop-color="#B3CBEB"/>
<stop offset="0.67" stop-color="white" stop-opacity="0"/>
</radialGradient>
<radialGradient id="paint15_radial" cx="0" cy="0" r="1" gradientUnits="userSpaceOnUse" gradientTransform="translate(873.904 247.89) rotate(59.3022) scale(43.011 112.563)">
<stop offset="0.31" stop-color="white"/>
<stop offset="1" stop-color="white" stop-opacity="0"/>
</radialGradient>
<radialGradient id="paint16_radial" cx="0" cy="0" r="1" gradientUnits="userSpaceOnUse" gradientTransform="translate(759.105 324.673) rotate(59.5766) scale(70.9423 44.0621)">
<stop offset="0.64" stop-color="white" stop-opacity="0"/>
<stop offset="1" stop-color="#4D9AE2"/>
</radialGradient>
<radialGradient id="paint17_radial" cx="0" cy="0" r="1" gradientUnits="userSpaceOnUse" gradientTransform="translate(910.531 238.661) rotate(59.389) scale(100.649 47.3869)">
<stop offset="0.34" stop-color="white" stop-opacity="0"/>
<stop offset="1" stop-color="#5685B8"/>
</radialGradient>
<radialGradient id="paint18_radial" cx="0" cy="0" r="1" gradientUnits="userSpaceOnUse" gradientTransform="translate(761.287 331.269) rotate(59.389) scale(68.8337 37.9655)">
<stop offset="0.72" stop-color="white" stop-opacity="0"/>
<stop offset="1" stop-color="#5685B8"/>
</radialGradient>
<radialGradient id="paint19_radial" cx="0" cy="0" r="1" gradientUnits="userSpaceOnUse" gradientTransform="translate(824.023 293.781) rotate(60.6689) scale(36.0346 34.2432)">
<stop offset="0.58" stop-color="#01B99F"/>
<stop offset="0.68" stop-color="#01B99F"/>
<stop offset="0.74" stop-color="#01B99F"/>
<stop offset="0.79" stop-color="#009C86"/>
<stop offset="0.83" stop-color="#009F89"/>
<stop offset="0.86" stop-color="#02937E"/>
<stop offset="0.9" stop-color="#6599FF"/>
<stop offset="0.93" stop-color="#75BDFF"/>
<stop offset="0.96" stop-color="#4AB3FF"/>
<stop offset="0.99" stop-color="#1AC8FF"/>
<stop offset="1" stop-color="#0094FF"/>
</radialGradient>
<linearGradient id="paint20_linear" x1="810.318" y1="269.469" x2="837.937" y2="317.976" gradientUnits="userSpaceOnUse">
<stop offset="0.01" stop-color="#21DFFF"/>
<stop offset="0.09" stop-color="#1CCAF5"/>
<stop offset="0.3" stop-color="#12A0E1"/>
<stop offset="0.49" stop-color="#0A7FD1"/>
<stop offset="0.68" stop-color="#0567C5"/>
<stop offset="0.85" stop-color="#0159BE"/>
<stop offset="1" stop-color="#0054BC"/>
</linearGradient>
<linearGradient id="paint21_linear" x1="840.227" y1="284.959" x2="805.62" y2="303.655" gradientUnits="userSpaceOnUse">
<stop stop-color="white"/>
<stop offset="1" stop-color="white" stop-opacity="0"/>
</linearGradient>
<radialGradient id="paint22_radial" cx="0" cy="0" r="1" gradientUnits="userSpaceOnUse" gradientTransform="translate(830.622 278.04) rotate(60.6689) scale(49.3486 50.4494)">
<stop offset="0.6" stop-color="white"/>
<stop offset="1" stop-color="white" stop-opacity="0"/>
</radialGradient>
</defs>
</svg>
