<svg width="18" height="17" viewBox="0 0 18 17" fill="none" xmlns="http://www.w3.org/2000/svg">
<path d="M9.4834 16.4502C9.76465 16.4502 10.0107 16.3447 10.2129 16.1514L17.0508 9.46289C17.2881 9.22559 17.4111 8.96191 17.4111 8.6543C17.4111 8.34668 17.2881 8.06543 17.042 7.83691L10.2041 1.15723C10.0107 0.963867 9.76465 0.858398 9.4834 0.858398C8.89453 0.858398 8.42871 1.31543 8.42871 1.89551C8.42871 2.17676 8.55176 2.44922 8.75391 2.65137L14.9062 8.64551L8.75391 14.6572C8.55176 14.8594 8.42871 15.123 8.42871 15.4131C8.42871 15.9932 8.89453 16.4502 9.4834 16.4502ZM1.62598 16.4502C1.91602 16.4502 2.15332 16.3447 2.35547 16.1514L9.19336 9.46289C9.43945 9.22559 9.55371 8.96191 9.55371 8.6543C9.55371 8.34668 9.43066 8.06543 9.19336 7.83691L2.35547 1.15723C2.15332 0.963867 1.91602 0.858398 1.62598 0.858398C1.03711 0.858398 0.580078 1.31543 0.580078 1.89551C0.580078 2.17676 0.694336 2.44922 0.896484 2.65137L7.05762 8.64551L0.896484 14.6572C0.703125 14.8594 0.580078 15.123 0.580078 15.4131C0.580078 15.9932 1.03711 16.4502 1.62598 16.4502Z" fill="#1C1C1E"/>
</svg>
