<svg width="280" height="568" viewBox="0 0 280 568" fill="none" xmlns="http://www.w3.org/2000/svg">
<g filter="url(#filter0_dddd)">
<path d="M84 62C84 57.5817 87.5817 54 92 54H188C192.418 54 196 57.5817 196 62V446C196 450.418 192.418 454 188 454H92C87.5817 454 84 450.418 84 446V62Z" fill="#282729"/>
<path d="M105.131 72.8182V80.0966C105.131 81.3643 104.524 82.0455 103.46 82.0455C102.491 82.0455 101.79 81.4787 101.79 80.6136H100.577C100.577 82.1797 101.79 83.1392 103.46 83.1392C105.23 83.1392 106.364 82.0504 106.364 80.0966V72.8182H105.131ZM110.923 83.179C112.255 83.179 112.951 82.4631 113.19 81.9659H113.249V83H114.423V77.9688C114.423 75.5426 112.573 75.2642 111.599 75.2642C110.445 75.2642 109.133 75.6619 108.536 77.054L109.65 77.4517C109.908 76.8949 110.52 76.2983 111.638 76.2983C112.717 76.2983 113.249 76.87 113.249 77.8494V77.8892C113.249 78.456 112.673 78.4062 111.281 78.5852C109.864 78.7692 108.317 79.0824 108.317 80.8324C108.317 82.3239 109.471 83.179 110.923 83.179ZM111.102 82.125C110.167 82.125 109.491 81.7074 109.491 80.892C109.491 79.9972 110.306 79.7188 111.221 79.5994C111.718 79.5398 113.05 79.4006 113.249 79.1619V80.2358C113.249 81.1903 112.494 82.125 111.102 82.125ZM117.737 78.4062C117.737 77.0739 118.563 76.3182 119.686 76.3182C120.775 76.3182 121.436 77.0291 121.436 78.2273V83H122.61V78.1477C122.61 76.1989 121.57 75.2642 120.024 75.2642C118.871 75.2642 118.155 75.7812 117.797 76.5568H117.698V75.3636H116.564V83H117.737V78.4062ZM129.566 79.8778C129.566 81.3097 128.472 81.9659 127.597 81.9659C126.623 81.9659 125.927 81.25 125.927 80.1364V75.3636H124.754V80.2159C124.754 82.1648 125.788 83.0994 127.219 83.0994C128.373 83.0994 129.129 82.483 129.487 81.7074H129.566V83H130.739V75.3636H129.566V79.8778ZM135.135 83.179C136.468 83.179 137.164 82.4631 137.403 81.9659H137.462V83H138.635V77.9688C138.635 75.5426 136.786 75.2642 135.812 75.2642C134.658 75.2642 133.346 75.6619 132.749 77.054L133.863 77.4517C134.121 76.8949 134.733 76.2983 135.851 76.2983C136.93 76.2983 137.462 76.87 137.462 77.8494V77.8892C137.462 78.456 136.885 78.4062 135.493 78.5852C134.077 78.7692 132.53 79.0824 132.53 80.8324C132.53 82.3239 133.684 83.179 135.135 83.179ZM135.314 82.125C134.38 82.125 133.704 81.7074 133.704 80.892C133.704 79.9972 134.519 79.7188 135.434 79.5994C135.931 79.5398 137.263 79.4006 137.462 79.1619V80.2358C137.462 81.1903 136.706 82.125 135.314 82.125ZM140.777 83H141.95V78.1676C141.95 77.1335 142.766 76.3778 143.879 76.3778C144.192 76.3778 144.516 76.4375 144.595 76.4574V75.2642C144.461 75.2543 144.153 75.2443 143.979 75.2443C143.064 75.2443 142.268 75.7614 141.99 76.517H141.911V75.3636H140.777V83ZM146.974 85.8636C148.033 85.8636 148.779 85.3018 149.221 84.1136L152.473 75.3835L151.19 75.3636L149.082 81.4489H149.002L146.895 75.3636H145.622L148.446 83.0398L148.227 83.6364C147.799 84.7997 147.272 84.9091 146.417 84.6903L146.119 85.7244C146.238 85.7841 146.576 85.8636 146.974 85.8636Z" fill="#C9C8CC"/>
<path d="M101.233 115H102.466V110.446H106.881V109.352H102.466V105.912H107.338V104.818H101.233V115ZM111.932 115.159C113.483 115.159 114.616 114.384 114.974 113.23L113.841 112.912C113.543 113.707 112.852 114.105 111.932 114.105C110.555 114.105 109.605 113.215 109.55 111.58H115.094V111.082C115.094 108.239 113.403 107.264 111.812 107.264C109.744 107.264 108.372 108.895 108.372 111.241C108.372 113.588 109.724 115.159 111.932 115.159ZM109.55 110.565C109.63 109.377 110.47 108.318 111.812 108.318C113.085 108.318 113.901 109.273 113.901 110.565H109.55ZM117.038 115H118.171V113.827H118.31C118.569 114.244 119.066 115.159 120.538 115.159C122.447 115.159 123.779 113.628 123.779 111.202C123.779 108.795 122.447 107.264 120.518 107.264C119.026 107.264 118.569 108.179 118.31 108.577H118.211V104.818H117.038V115ZM118.191 111.182C118.191 109.472 118.947 108.318 120.379 108.318C121.87 108.318 122.606 109.571 122.606 111.182C122.606 112.812 121.85 114.105 120.379 114.105C118.967 114.105 118.191 112.912 118.191 111.182ZM125.574 115H126.747V110.168C126.747 109.134 127.562 108.378 128.676 108.378C128.989 108.378 129.312 108.438 129.392 108.457V107.264C129.258 107.254 128.95 107.244 128.776 107.244C127.861 107.244 127.065 107.761 126.787 108.517H126.707V107.364H125.574V115ZM135.595 111.878C135.595 113.31 134.502 113.966 133.627 113.966C132.652 113.966 131.956 113.25 131.956 112.136V107.364H130.783V112.216C130.783 114.165 131.817 115.099 133.249 115.099C134.402 115.099 135.158 114.483 135.516 113.707H135.595V115H136.769V107.364H135.595V111.878ZM141.165 115.179C142.497 115.179 143.193 114.463 143.432 113.966H143.491V115H144.665V109.969C144.665 107.543 142.815 107.264 141.841 107.264C140.688 107.264 139.375 107.662 138.778 109.054L139.892 109.452C140.151 108.895 140.762 108.298 141.881 108.298C142.96 108.298 143.491 108.87 143.491 109.849V109.889C143.491 110.456 142.915 110.406 141.523 110.585C140.106 110.769 138.56 111.082 138.56 112.832C138.56 114.324 139.713 115.179 141.165 115.179ZM141.344 114.125C140.409 114.125 139.733 113.707 139.733 112.892C139.733 111.997 140.548 111.719 141.463 111.599C141.96 111.54 143.293 111.401 143.491 111.162V112.236C143.491 113.19 142.736 114.125 141.344 114.125ZM146.806 115H147.98V110.168C147.98 109.134 148.795 108.378 149.909 108.378C150.222 108.378 150.545 108.438 150.624 108.457V107.264C150.49 107.254 150.182 107.244 150.008 107.244C149.093 107.244 148.298 107.761 148.019 108.517H147.94V107.364H146.806V115ZM153.003 117.864C154.062 117.864 154.808 117.302 155.251 116.114L158.502 107.384L157.219 107.364L155.111 113.449H155.032L152.924 107.364H151.651L154.475 115.04L154.256 115.636C153.829 116.8 153.302 116.909 152.447 116.69L152.148 117.724C152.268 117.784 152.606 117.864 153.003 117.864Z" fill="#C9C8CC"/>
<path d="M101.233 136.818V147H102.386V139.264H102.486L105.668 147H106.781L109.963 139.264H110.062V147H111.216V136.818H109.744L106.284 145.27H106.165L102.705 136.818H101.233ZM115.776 147.179C117.108 147.179 117.805 146.463 118.043 145.966H118.103V147H119.276V141.969C119.276 139.543 117.427 139.264 116.452 139.264C115.299 139.264 113.986 139.662 113.39 141.054L114.503 141.452C114.762 140.895 115.373 140.298 116.492 140.298C117.571 140.298 118.103 140.87 118.103 141.849V141.889C118.103 142.456 117.526 142.406 116.134 142.585C114.717 142.769 113.171 143.082 113.171 144.832C113.171 146.324 114.324 147.179 115.776 147.179ZM115.955 146.125C115.02 146.125 114.344 145.707 114.344 144.892C114.344 143.997 115.16 143.719 116.074 143.599C116.572 143.54 117.904 143.401 118.103 143.162V144.236C118.103 145.19 117.347 146.125 115.955 146.125ZM121.418 147H122.591V142.168C122.591 141.134 123.406 140.378 124.52 140.378C124.833 140.378 125.156 140.438 125.236 140.457V139.264C125.102 139.254 124.793 139.244 124.619 139.244C123.705 139.244 122.909 139.761 122.631 140.517H122.551V139.364H121.418V147ZM129.496 147.159C131.187 147.159 132.3 146.125 132.499 144.773H131.326C131.107 145.608 130.411 146.105 129.496 146.105C128.104 146.105 127.21 144.952 127.21 143.182C127.21 141.452 128.124 140.318 129.496 140.318C130.531 140.318 131.147 140.955 131.326 141.651H132.499C132.3 140.219 131.087 139.264 129.477 139.264C127.408 139.264 126.036 140.895 126.036 143.222C126.036 145.509 127.349 147.159 129.496 147.159ZM135.388 142.406C135.388 141.074 136.238 140.318 137.396 140.318C138.5 140.318 139.166 141.014 139.166 142.227V147H140.339V142.148C140.339 140.184 139.295 139.264 137.734 139.264C136.531 139.264 135.845 139.766 135.487 140.557H135.388V136.818H134.214V147H135.388V142.406Z" fill="#C9C8CC"/>
<path d="M84 158H196V190H84V158Z" fill="#7047EB"/>
<path d="M102.312 179L103.152 176.489H106.98L107.825 179H109.794L106.205 168.818H103.928L100.343 179H102.312ZM103.649 175.008L105.026 170.906H105.106L106.483 175.008H103.649ZM111.056 181.864H112.855V177.797H112.93C113.213 178.354 113.805 179.134 115.117 179.134C116.917 179.134 118.264 177.707 118.264 175.192C118.264 172.646 116.877 171.264 115.112 171.264C113.765 171.264 113.203 172.075 112.93 172.626H112.825V171.364H111.056V181.864ZM112.82 175.182C112.82 173.7 113.457 172.741 114.615 172.741C115.813 172.741 116.43 173.76 116.43 175.182C116.43 176.614 115.803 177.658 114.615 177.658C113.467 177.658 112.82 176.663 112.82 175.182ZM119.806 179H121.605V174.511C121.605 173.541 122.336 172.855 123.325 172.855C123.629 172.855 124.007 172.91 124.161 172.96V171.304C123.997 171.274 123.713 171.254 123.514 171.254C122.639 171.254 121.909 171.751 121.63 172.636H121.551V171.364H119.806V179ZM125.356 179H127.156V171.364H125.356V179ZM126.261 170.28C126.833 170.28 127.3 169.842 127.3 169.305C127.3 168.763 126.833 168.326 126.261 168.326C125.684 168.326 125.217 168.763 125.217 169.305C125.217 169.842 125.684 170.28 126.261 170.28ZM130.806 168.818H129.007V179H130.806V168.818Z" fill="#F8F7FA"/>
<path d="M101.233 200.818V211H102.386V203.264H102.486L105.668 211H106.781L109.963 203.264H110.062V211H111.216V200.818H109.744L106.284 209.27H106.165L102.705 200.818H101.233ZM115.776 211.179C117.108 211.179 117.805 210.463 118.043 209.966H118.103V211H119.276V205.969C119.276 203.543 117.427 203.264 116.452 203.264C115.299 203.264 113.986 203.662 113.39 205.054L114.503 205.452C114.762 204.895 115.373 204.298 116.492 204.298C117.571 204.298 118.103 204.87 118.103 205.849V205.889C118.103 206.456 117.526 206.406 116.134 206.585C114.717 206.769 113.171 207.082 113.171 208.832C113.171 210.324 114.324 211.179 115.776 211.179ZM115.955 210.125C115.02 210.125 114.344 209.707 114.344 208.892C114.344 207.997 115.16 207.719 116.074 207.599C116.572 207.54 117.904 207.401 118.103 207.162V208.236C118.103 209.19 117.347 210.125 115.955 210.125ZM121.9 213.864C122.959 213.864 123.705 213.302 124.147 212.114L127.398 203.384L126.116 203.364L124.008 209.449H123.928L121.82 203.364H120.548L123.371 211.04L123.153 211.636C122.725 212.8 122.198 212.909 121.343 212.69L121.045 213.724C121.164 213.784 121.502 213.864 121.9 213.864Z" fill="#C9C8CC"/>
<path d="M105.131 232.818V240.097C105.131 241.364 104.524 242.045 103.46 242.045C102.491 242.045 101.79 241.479 101.79 240.614H100.577C100.577 242.18 101.79 243.139 103.46 243.139C105.23 243.139 106.364 242.05 106.364 240.097V232.818H105.131ZM113.488 239.878C113.488 241.31 112.394 241.966 111.519 241.966C110.545 241.966 109.849 241.25 109.849 240.136V235.364H108.675V240.216C108.675 242.165 109.71 243.099 111.141 243.099C112.295 243.099 113.05 242.483 113.408 241.707H113.488V243H114.661V235.364H113.488V239.878ZM117.983 238.406C117.983 237.074 118.809 236.318 119.932 236.318C121.021 236.318 121.682 237.029 121.682 238.227V243H122.856V238.148C122.856 236.199 121.817 235.264 120.27 235.264C119.117 235.264 118.401 235.781 118.043 236.557H117.944V235.364H116.81V243H117.983V238.406ZM128.201 243.159C129.752 243.159 130.886 242.384 131.244 241.23L130.11 240.912C129.812 241.707 129.121 242.105 128.201 242.105C126.824 242.105 125.875 241.215 125.82 239.58H131.363V239.082C131.363 236.239 129.673 235.264 128.082 235.264C126.014 235.264 124.642 236.895 124.642 239.241C124.642 241.588 125.994 243.159 128.201 243.159ZM125.82 238.565C125.9 237.377 126.74 236.318 128.082 236.318C129.355 236.318 130.17 237.273 130.17 238.565H125.82Z" fill="#C9C8CC"/>
<path d="M105.131 264.818V272.097C105.131 273.364 104.524 274.045 103.46 274.045C102.491 274.045 101.79 273.479 101.79 272.614H100.577C100.577 274.18 101.79 275.139 103.46 275.139C105.23 275.139 106.364 274.05 106.364 272.097V264.818H105.131ZM113.488 271.878C113.488 273.31 112.394 273.966 111.519 273.966C110.545 273.966 109.849 273.25 109.849 272.136V267.364H108.675V272.216C108.675 274.165 109.71 275.099 111.141 275.099C112.295 275.099 113.05 274.483 113.408 273.707H113.488V275H114.661V267.364H113.488V271.878ZM117.983 264.818H116.81V275H117.983V264.818ZM120.888 277.864C121.947 277.864 122.693 277.302 123.135 276.114L126.387 267.384L125.104 267.364L122.996 273.449H122.917L120.809 267.364H119.536L122.36 275.04L122.141 275.636C121.713 276.8 121.186 276.909 120.331 276.69L120.033 277.724C120.152 277.784 120.49 277.864 120.888 277.864Z" fill="#C9C8CC"/>
<path d="M101.651 307L102.675 304.116H106.791L107.815 307H109.108L105.369 296.818H104.097L100.358 307H101.651ZM103.062 303.023L104.693 298.429H104.773L106.403 303.023H103.062ZM115.347 303.878C115.347 305.31 114.254 305.966 113.379 305.966C112.404 305.966 111.708 305.25 111.708 304.136V299.364H110.535V304.216C110.535 306.165 111.569 307.099 113.001 307.099C114.154 307.099 114.91 306.483 115.268 305.707H115.347V307H116.521V299.364H115.347V303.878ZM121.752 310.023C123.581 310.023 125.053 309.188 125.053 307.219V299.364H123.92V300.577H123.8C123.542 300.179 123.064 299.264 121.573 299.264C119.644 299.264 118.312 300.795 118.312 303.142C118.312 305.528 119.704 306.881 121.553 306.881C123.045 306.881 123.522 306.006 123.78 305.588H123.88V307.139C123.88 308.412 122.985 308.989 121.752 308.989C120.365 308.989 119.878 308.258 119.564 307.835L118.63 308.491C119.107 309.292 120.047 310.023 121.752 310.023ZM121.712 305.827C120.241 305.827 119.485 304.713 119.485 303.122C119.485 301.571 120.221 300.318 121.712 300.318C123.144 300.318 123.9 301.472 123.9 303.122C123.9 304.812 123.124 305.827 121.712 305.827ZM132.013 303.878C132.013 305.31 130.92 305.966 130.045 305.966C129.07 305.966 128.374 305.25 128.374 304.136V299.364H127.201V304.216C127.201 306.165 128.235 307.099 129.667 307.099C130.82 307.099 131.576 306.483 131.934 305.707H132.013V307H133.187V299.364H132.013V303.878ZM140.745 301.074C140.377 299.99 139.551 299.264 138.04 299.264C136.429 299.264 135.236 300.179 135.236 301.472C135.236 302.526 135.863 303.232 137.265 303.56L138.537 303.858C139.308 304.037 139.671 304.405 139.671 304.932C139.671 305.588 138.975 306.125 137.881 306.125C136.922 306.125 136.32 305.712 136.111 304.892L134.998 305.17C135.271 306.468 136.34 307.159 137.901 307.159C139.676 307.159 140.884 306.19 140.884 304.872C140.884 303.808 140.218 303.137 138.855 302.804L137.722 302.526C136.817 302.302 136.409 301.999 136.409 301.412C136.409 300.756 137.105 300.278 138.04 300.278C139.064 300.278 139.487 300.845 139.691 301.372L140.745 301.074ZM145.971 299.364H144.34V297.534H143.167V299.364H142.014V300.358H143.167V305.131C143.167 306.463 144.241 307.099 145.235 307.099C145.673 307.099 145.951 307.02 146.11 306.96L145.872 305.906C145.772 305.926 145.613 305.966 145.355 305.966C144.838 305.966 144.34 305.807 144.34 304.812V300.358H145.971V299.364Z" fill="#C9C8CC"/>
<path d="M106.801 331.364H107.994C107.94 329.827 106.523 328.679 104.554 328.679C102.605 328.679 101.074 329.812 101.074 331.523C101.074 332.895 102.068 333.71 103.659 334.168L104.912 334.526C105.986 334.824 106.94 335.202 106.94 336.216C106.94 337.33 105.866 338.065 104.455 338.065C103.241 338.065 102.168 337.528 102.068 336.375H100.795C100.915 338.045 102.267 339.179 104.455 339.179C106.801 339.179 108.134 337.886 108.134 336.236C108.134 334.327 106.324 333.71 105.27 333.432L104.236 333.153C103.48 332.955 102.267 332.557 102.267 331.463C102.267 330.489 103.162 329.773 104.514 329.773C105.747 329.773 106.682 330.359 106.801 331.364ZM113.203 339.159C114.754 339.159 115.888 338.384 116.246 337.23L115.112 336.912C114.814 337.707 114.123 338.105 113.203 338.105C111.826 338.105 110.877 337.215 110.822 335.58H116.365V335.082C116.365 332.239 114.675 331.264 113.084 331.264C111.016 331.264 109.644 332.895 109.644 335.241C109.644 337.588 110.996 339.159 113.203 339.159ZM110.822 334.565C110.901 333.377 111.742 332.318 113.084 332.318C114.357 332.318 115.172 333.273 115.172 334.565H110.822ZM118.15 341.864H119.323V337.827H119.423C119.681 338.244 120.178 339.159 121.65 339.159C123.559 339.159 124.892 337.628 124.892 335.202C124.892 332.795 123.559 331.264 121.63 331.264C120.139 331.264 119.681 332.179 119.423 332.577H119.284V331.364H118.15V341.864ZM119.303 335.182C119.303 333.472 120.059 332.318 121.491 332.318C122.982 332.318 123.718 333.571 123.718 335.182C123.718 336.812 122.963 338.105 121.491 338.105C120.079 338.105 119.303 336.912 119.303 335.182ZM130.002 331.364H128.372V329.534H127.198V331.364H126.045V332.358H127.198V337.131C127.198 338.463 128.272 339.099 129.267 339.099C129.704 339.099 129.982 339.02 130.142 338.96L129.903 337.906C129.803 337.926 129.644 337.966 129.386 337.966C128.869 337.966 128.372 337.807 128.372 336.812V332.358H130.002V331.364ZM134.887 339.159C136.438 339.159 137.572 338.384 137.93 337.23L136.796 336.912C136.498 337.707 135.807 338.105 134.887 338.105C133.51 338.105 132.56 337.215 132.506 335.58H138.049V335.082C138.049 332.239 136.358 331.264 134.768 331.264C132.699 331.264 131.327 332.895 131.327 335.241C131.327 337.588 132.68 339.159 134.887 339.159ZM132.506 334.565C132.585 333.377 133.425 332.318 134.768 332.318C136.04 332.318 136.856 333.273 136.856 334.565H132.506ZM139.834 339H141.007V334.227C141.007 333.109 141.822 332.318 142.737 332.318C143.627 332.318 144.248 332.9 144.248 333.77V339H145.442V334.028C145.442 333.044 146.058 332.318 147.132 332.318C147.967 332.318 148.683 332.761 148.683 333.889V339H149.856V333.889C149.856 332.094 148.892 331.264 147.53 331.264C146.436 331.264 145.635 331.766 145.243 332.557H145.163C144.785 331.741 144.119 331.264 143.115 331.264C142.121 331.264 141.385 331.741 141.067 332.557H140.967V331.364H139.834V339ZM152.161 339H153.294V337.827H153.433C153.692 338.244 154.189 339.159 155.661 339.159C157.57 339.159 158.902 337.628 158.902 335.202C158.902 332.795 157.57 331.264 155.641 331.264C154.149 331.264 153.692 332.179 153.433 332.577H153.334V328.818H152.161V339ZM153.314 335.182C153.314 333.472 154.07 332.318 155.502 332.318C156.993 332.318 157.729 333.571 157.729 335.182C157.729 336.812 156.973 338.105 155.502 338.105C154.09 338.105 153.314 336.912 153.314 335.182ZM163.899 339.159C165.45 339.159 166.583 338.384 166.941 337.23L165.808 336.912C165.509 337.707 164.818 338.105 163.899 338.105C162.521 338.105 161.572 337.215 161.517 335.58H167.061V335.082C167.061 332.239 165.37 331.264 163.779 331.264C161.711 331.264 160.339 332.895 160.339 335.241C160.339 337.588 161.691 339.159 163.899 339.159ZM161.517 334.565C161.597 333.377 162.437 332.318 163.779 332.318C165.052 332.318 165.867 333.273 165.867 334.565H161.517ZM168.845 339H170.019V334.168C170.019 333.134 170.834 332.378 171.948 332.378C172.261 332.378 172.584 332.438 172.664 332.457V331.264C172.529 331.254 172.221 331.244 172.047 331.244C171.132 331.244 170.337 331.761 170.058 332.517H169.979V331.364H168.845V339Z" fill="#C9C8CC"/>
<path d="M84 350H196V382H84V350Z" fill="#313133"/>
<path d="M109.381 366.273C109.381 363.217 107.516 361.416 105.037 361.416C102.553 361.416 100.692 363.217 100.692 366.273C100.692 369.324 102.553 371.129 105.037 371.129C107.516 371.129 109.381 369.329 109.381 366.273ZM107.659 366.273C107.659 368.424 106.578 369.592 105.037 369.592C103.499 369.592 102.414 368.424 102.414 366.273C102.414 364.121 103.499 362.953 105.037 362.953C106.578 362.953 107.659 364.121 107.659 366.273ZM114.019 371.138C115.801 371.138 116.937 370.081 117.057 368.576H115.459C115.316 369.338 114.767 369.777 114.033 369.777C112.99 369.777 112.316 368.904 112.316 367.455C112.316 366.023 113.003 365.165 114.033 365.165C114.836 365.165 115.33 365.682 115.459 366.365H117.057C116.941 364.828 115.741 363.817 114.01 363.817C111.932 363.817 110.621 365.317 110.621 367.482C110.621 369.629 111.9 371.138 114.019 371.138ZM121.97 363.909H120.571V362.21H118.9V363.909H117.893V365.202H118.9V369.144C118.891 370.478 119.86 371.134 121.116 371.097C121.591 371.083 121.919 370.991 122.099 370.931L121.817 369.624C121.725 369.647 121.536 369.689 121.328 369.689C120.908 369.689 120.571 369.541 120.571 368.867V365.202H121.97V363.909ZM126.384 371.138C128.462 371.138 129.782 369.675 129.782 367.482C129.782 365.285 128.462 363.817 126.384 363.817C124.307 363.817 122.987 365.285 122.987 367.482C122.987 369.675 124.307 371.138 126.384 371.138ZM126.394 369.8C125.244 369.8 124.681 368.775 124.681 367.478C124.681 366.18 125.244 365.142 126.394 365.142C127.525 365.142 128.088 366.18 128.088 367.478C128.088 368.775 127.525 369.8 126.394 369.8ZM131.274 371H132.918V369.883H133.015C133.278 370.4 133.827 371.125 135.046 371.125C136.717 371.125 137.968 369.8 137.968 367.464C137.968 365.1 136.68 363.817 135.041 363.817C133.79 363.817 133.269 364.569 133.015 365.082H132.945V361.545H131.274V371ZM132.913 367.455C132.913 366.079 133.504 365.188 134.58 365.188C135.692 365.188 136.265 366.134 136.265 367.455C136.265 368.784 135.683 369.754 134.58 369.754C133.513 369.754 132.913 368.83 132.913 367.455ZM142.528 371.138C144.181 371.138 145.316 370.331 145.612 369.098L144.052 368.923C143.825 369.523 143.271 369.837 142.551 369.837C141.471 369.837 140.755 369.126 140.742 367.912H145.681V367.399C145.681 364.911 144.185 363.817 142.44 363.817C140.409 363.817 139.084 365.308 139.084 367.496C139.084 369.721 140.391 371.138 142.528 371.138ZM140.746 366.785C140.797 365.88 141.466 365.119 142.464 365.119C143.424 365.119 144.07 365.82 144.079 366.785H140.746ZM147.095 371H148.766V366.831C148.766 365.931 149.445 365.294 150.363 365.294C150.645 365.294 150.996 365.345 151.139 365.391V363.854C150.987 363.826 150.724 363.808 150.539 363.808C149.726 363.808 149.048 364.269 148.789 365.091H148.715V363.909H147.095V371Z" fill="#F8F7FA"/>
<path d="M109.307 392.818H108.094V400.832H107.994L102.426 392.818H101.233V403H102.466V395.006H102.565L108.114 403H109.307V392.818ZM114.717 403.159C116.785 403.159 118.177 401.588 118.177 399.222C118.177 396.835 116.785 395.264 114.717 395.264C112.649 395.264 111.257 396.835 111.257 399.222C111.257 401.588 112.649 403.159 114.717 403.159ZM114.717 402.105C113.146 402.105 112.43 400.753 112.43 399.222C112.43 397.69 113.146 396.318 114.717 396.318C116.288 396.318 117.004 397.69 117.004 399.222C117.004 400.753 116.288 402.105 114.717 402.105ZM125.939 395.364H124.667L122.559 401.449H122.479L120.371 395.364H119.098L121.922 403H123.115L125.939 395.364ZM130.416 403.159C131.967 403.159 133.101 402.384 133.459 401.23L132.325 400.912C132.027 401.707 131.336 402.105 130.416 402.105C129.039 402.105 128.089 401.215 128.035 399.58H133.578V399.082C133.578 396.239 131.888 395.264 130.297 395.264C128.229 395.264 126.857 396.895 126.857 399.241C126.857 401.588 128.209 403.159 130.416 403.159ZM128.035 398.565C128.114 397.377 128.955 396.318 130.297 396.318C131.57 396.318 132.385 397.273 132.385 398.565H128.035ZM135.363 403H136.536V398.227C136.536 397.109 137.352 396.318 138.266 396.318C139.156 396.318 139.778 396.9 139.778 397.77V403H140.971V398.028C140.971 397.044 141.587 396.318 142.661 396.318C143.496 396.318 144.212 396.761 144.212 397.889V403H145.386V397.889C145.386 396.094 144.421 395.264 143.059 395.264C141.965 395.264 141.165 395.766 140.772 396.557H140.692C140.315 395.741 139.648 395.264 138.644 395.264C137.65 395.264 136.914 395.741 136.596 396.557H136.496V395.364H135.363V403ZM147.69 403H148.824V401.827H148.963C149.221 402.244 149.718 403.159 151.19 403.159C153.099 403.159 154.431 401.628 154.431 399.202C154.431 396.795 153.099 395.264 151.17 395.264C149.679 395.264 149.221 396.179 148.963 396.577H148.863V392.818H147.69V403ZM148.843 399.182C148.843 397.472 149.599 396.318 151.031 396.318C152.522 396.318 153.258 397.571 153.258 399.182C153.258 400.812 152.502 402.105 151.031 402.105C149.619 402.105 148.843 400.912 148.843 399.182ZM159.428 403.159C160.979 403.159 162.113 402.384 162.471 401.23L161.337 400.912C161.039 401.707 160.348 402.105 159.428 402.105C158.051 402.105 157.101 401.215 157.047 399.58H162.59V399.082C162.59 396.239 160.9 395.264 159.309 395.264C157.24 395.264 155.868 396.895 155.868 399.241C155.868 401.588 157.221 403.159 159.428 403.159ZM157.047 398.565C157.126 397.377 157.966 396.318 159.309 396.318C160.581 396.318 161.397 397.273 161.397 398.565H157.047ZM164.375 403H165.548V398.168C165.548 397.134 166.363 396.378 167.477 396.378C167.79 396.378 168.113 396.438 168.193 396.457V395.264C168.059 395.254 167.75 395.244 167.576 395.244C166.662 395.244 165.866 395.761 165.588 396.517H165.508V395.364H164.375V403Z" fill="#C9C8CC"/>
<path d="M104.375 435C107.477 435 109.227 433.071 109.227 429.889C109.227 426.727 107.477 424.818 104.514 424.818H101.233V435H104.375ZM102.466 433.906V425.912H104.435C106.821 425.912 108.034 427.423 108.034 429.889C108.034 432.375 106.821 433.906 104.295 433.906H102.466ZM114.338 435.159C115.889 435.159 117.023 434.384 117.381 433.23L116.247 432.912C115.949 433.707 115.258 434.105 114.338 434.105C112.961 434.105 112.011 433.215 111.957 431.58H117.5V431.082C117.5 428.239 115.81 427.264 114.219 427.264C112.151 427.264 110.778 428.895 110.778 431.241C110.778 433.588 112.131 435.159 114.338 435.159ZM111.957 430.565C112.036 429.377 112.876 428.318 114.219 428.318C115.491 428.318 116.307 429.273 116.307 430.565H111.957ZM122.387 435.159C124.077 435.159 125.191 434.125 125.39 432.773H124.217C123.998 433.608 123.302 434.105 122.387 434.105C120.995 434.105 120.1 432.952 120.1 431.182C120.1 429.452 121.015 428.318 122.387 428.318C123.421 428.318 124.038 428.955 124.217 429.651H125.39C125.191 428.219 123.978 427.264 122.367 427.264C120.299 427.264 118.927 428.895 118.927 431.222C118.927 433.509 120.239 435.159 122.387 435.159ZM130.307 435.159C131.858 435.159 132.991 434.384 133.349 433.23L132.216 432.912C131.918 433.707 131.227 434.105 130.307 434.105C128.93 434.105 127.98 433.215 127.925 431.58H133.469V431.082C133.469 428.239 131.778 427.264 130.188 427.264C128.119 427.264 126.747 428.895 126.747 431.241C126.747 433.588 128.099 435.159 130.307 435.159ZM127.925 430.565C128.005 429.377 128.845 428.318 130.188 428.318C131.46 428.318 132.276 429.273 132.276 430.565H127.925ZM135.254 435H136.427V430.227C136.427 429.109 137.242 428.318 138.157 428.318C139.047 428.318 139.668 428.9 139.668 429.77V435H140.862V430.028C140.862 429.044 141.478 428.318 142.552 428.318C143.387 428.318 144.103 428.761 144.103 429.889V435H145.276V429.889C145.276 428.094 144.312 427.264 142.95 427.264C141.856 427.264 141.055 427.766 140.663 428.557H140.583C140.205 427.741 139.539 427.264 138.535 427.264C137.54 427.264 136.805 427.741 136.487 428.557H136.387V427.364H135.254V435ZM147.581 435H148.714V433.827H148.853C149.112 434.244 149.609 435.159 151.081 435.159C152.99 435.159 154.322 433.628 154.322 431.202C154.322 428.795 152.99 427.264 151.061 427.264C149.569 427.264 149.112 428.179 148.853 428.577H148.754V424.818H147.581V435ZM148.734 431.182C148.734 429.472 149.49 428.318 150.922 428.318C152.413 428.318 153.149 429.571 153.149 431.182C153.149 432.812 152.393 434.105 150.922 434.105C149.51 434.105 148.734 432.912 148.734 431.182ZM159.319 435.159C160.87 435.159 162.003 434.384 162.361 433.23L161.228 432.912C160.929 433.707 160.238 434.105 159.319 434.105C157.941 434.105 156.992 433.215 156.937 431.58H162.48V431.082C162.48 428.239 160.79 427.264 159.199 427.264C157.131 427.264 155.759 428.895 155.759 431.241C155.759 433.588 157.111 435.159 159.319 435.159ZM156.937 430.565C157.017 429.377 157.857 428.318 159.199 428.318C160.472 428.318 161.287 429.273 161.287 430.565H156.937ZM164.265 435H165.439V430.168C165.439 429.134 166.254 428.378 167.368 428.378C167.681 428.378 168.004 428.438 168.083 428.457V427.264C167.949 427.254 167.641 427.244 167.467 427.244C166.552 427.244 165.757 427.761 165.478 428.517H165.399V427.364H164.265V435Z" fill="#C9C8CC"/>
</g>
<defs>
<filter id="filter0_dddd" x="0" y="0" width="280" height="568" filterUnits="userSpaceOnUse" color-interpolation-filters="sRGB">
<feFlood flood-opacity="0" result="BackgroundImageFix"/>
<feColorMatrix in="SourceAlpha" type="matrix" values="0 0 0 0 0 0 0 0 0 0 0 0 0 0 0 0 0 0 127 0" result="hardAlpha"/>
<feOffset dy="1"/>
<feGaussianBlur stdDeviation="1.5"/>
<feColorMatrix type="matrix" values="0 0 0 0 0.0745098 0 0 0 0 0.0392157 0 0 0 0 0.180392 0 0 0 0.13 0"/>
<feBlend mode="normal" in2="BackgroundImageFix" result="effect1_dropShadow"/>
<feColorMatrix in="SourceAlpha" type="matrix" values="0 0 0 0 0 0 0 0 0 0 0 0 0 0 0 0 0 0 127 0" result="hardAlpha"/>
<feOffset dy="3"/>
<feGaussianBlur stdDeviation="7"/>
<feColorMatrix type="matrix" values="0 0 0 0 0.0745098 0 0 0 0 0.0392157 0 0 0 0 0.180392 0 0 0 0.03 0"/>
<feBlend mode="normal" in2="effect1_dropShadow" result="effect2_dropShadow"/>
<feColorMatrix in="SourceAlpha" type="matrix" values="0 0 0 0 0 0 0 0 0 0 0 0 0 0 0 0 0 0 127 0" result="hardAlpha"/>
<feOffset dy="8"/>
<feGaussianBlur stdDeviation="16"/>
<feColorMatrix type="matrix" values="0 0 0 0 0.0745098 0 0 0 0 0.0392157 0 0 0 0 0.180392 0 0 0 0.07 0"/>
<feBlend mode="normal" in2="effect2_dropShadow" result="effect3_dropShadow"/>
<feColorMatrix in="SourceAlpha" type="matrix" values="0 0 0 0 0 0 0 0 0 0 0 0 0 0 0 0 0 0 127 0" result="hardAlpha"/>
<feOffset dy="30"/>
<feGaussianBlur stdDeviation="42"/>
<feColorMatrix type="matrix" values="0 0 0 0 0.0745098 0 0 0 0 0.0392157 0 0 0 0 0.180392 0 0 0 0.08 0"/>
<feBlend mode="normal" in2="effect3_dropShadow" result="effect4_dropShadow"/>
<feBlend mode="normal" in="SourceGraphic" in2="effect4_dropShadow" result="shape"/>
</filter>
</defs>
</svg>
